<svg width="74" height="56" viewBox="0 0 74 56" fill="none" xmlns="http://www.w3.org/2000/svg">
<rect x="2" width="72" height="56" rx="4" fill="#3B82C4"/>
<path d="M14.83 11.72C14.0844 11.72 13.48 12.3244 13.48 13.07C13.48 13.8156 14.0844 14.42 14.83 14.42H22.59C23.3356 14.42 23.94 13.8156 23.94 13.07C23.94 12.3244 23.3356 11.72 22.59 11.72H14.83ZM11.38 16.22C10.6178 16.22 10 16.8378 10 17.6C10 18.3622 10.6178 18.98 11.38 18.98H26.18C26.9422 18.98 27.56 18.3622 27.56 17.6C27.56 16.8378 26.9422 16.22 26.18 16.22H11.38ZM18.72 13.14C17.8584 13.14 17.16 13.8384 17.16 14.7V21.68C17.16 22.02 17.02 22.1 16.58 22.12C16.3967 22.12 16.0049 22.12 15.5235 22.1157C14.5767 22.1071 13.9503 23.2208 14.2781 24.1092C14.4716 24.6338 14.9406 24.9831 15.4997 24.9714C16.8243 24.9438 17.9275 24.837 18.82 24.48C19.92 24.04 20.28 23.3 20.28 21.76V14.7C20.28 13.8384 19.5816 13.14 18.72 13.14ZM18.72 6C17.8584 6 17.16 6.69844 17.16 7.56V8.32C17.16 9.18156 17.8584 9.88 18.72 9.88C19.5816 9.88 20.28 9.18156 20.28 8.32V7.56C20.28 6.69844 19.5816 6 18.72 6ZM12 7.86C10.8954 7.86 10 8.75543 10 9.86V11.83C10 12.6198 10.6402 13.26 11.43 13.26H11.49C12.2466 13.26 12.86 12.6466 12.86 11.89C12.86 11.1334 13.4734 10.52 14.23 10.52H23.17C23.9266 10.52 24.54 11.1334 24.54 11.89C24.54 12.6466 25.1534 13.26 25.91 13.26H26.05C26.884 13.26 27.56 12.584 27.56 11.75V9.86C27.56 8.75543 26.6646 7.86 25.56 7.86H12Z" fill="#F5A500"/>
<path d="M38.72 6C37.8584 6 37.16 6.69844 37.16 7.56V8.32C37.16 9.18156 37.8584 9.88 38.72 9.88C39.5816 9.88 40.28 9.18157 40.28 8.32V7.56C40.28 6.69844 39.5816 6 38.72 6ZM32.24 7.98C31.1354 7.98 30.24 8.87543 30.24 9.98V11.77C30.24 12.5598 30.8802 13.2 31.67 13.2H31.82C32.5269 13.2 33.1 12.6269 33.1 11.92C33.1 11.2131 33.6731 10.64 34.38 10.64H43.06C43.7669 10.64 44.34 11.2131 44.34 11.92C44.34 12.6269 44.9131 13.2 45.62 13.2H45.85C46.684 13.2 47.36 12.524 47.36 11.69V9.98C47.36 8.87543 46.4646 7.98 45.36 7.98H32.24Z" fill="#F5A500"/>
<path d="M60.08 17.28C58.9754 17.28 58.08 18.1754 58.08 19.28V23.62C58.08 24.3711 58.6889 24.98 59.44 24.98C60.1911 24.98 60.8 24.3711 60.8 23.62V21.57C60.8 20.6256 61.5656 19.86 62.51 19.86C63.4544 19.86 64.22 20.6256 64.22 21.57V23.48C64.22 24.2642 64.8558 24.9 65.64 24.9C66.4242 24.9 67.06 24.2642 67.06 23.48V19.28C67.06 18.1754 66.1646 17.28 65.06 17.28H60.08ZM58.98 9.98C58.3062 9.98 57.76 10.5262 57.76 11.2C57.76 11.8738 58.3062 12.42 58.98 12.42H62.44C63.2463 12.42 63.9 13.0737 63.9 13.88V13.95C63.9 14.7177 64.5223 15.34 65.29 15.34C66.0577 15.34 66.68 14.7177 66.68 13.95V11.98C66.68 10.8754 65.7846 9.98 64.68 9.98H58.98ZM61.3099 7.60531C60.5577 7.54663 59.8957 8.0958 59.801 8.84434C59.5968 10.4586 59.3315 12.2035 59.0582 13.6869C58.8996 14.5476 59.5523 15.36 60.4275 15.36C61.0752 15.36 61.6344 14.9056 61.7526 14.2687C62.0278 12.7861 62.3261 10.9308 62.5777 9.18054C62.6917 8.38756 62.1086 7.66762 61.3099 7.60531ZM58.67 6.46C57.9907 6.46 57.44 7.01069 57.44 7.69C57.44 8.36931 57.9907 8.92 58.67 8.92H66.39C67.0693 8.92 67.62 8.36931 67.62 7.69C67.62 7.01069 67.0693 6.46 66.39 6.46H58.67ZM57.9 13.96C57.2041 13.96 56.64 14.5241 56.64 15.22C56.64 15.9159 57.2041 16.48 57.9 16.48H67.1C67.7959 16.48 68.36 15.9159 68.36 15.22C68.36 14.5241 67.7959 13.96 67.1 13.96H57.9ZM60.41 21.72C59.6976 21.72 59.12 22.2976 59.12 23.01C59.12 23.7224 59.6976 24.3 60.41 24.3H64.59C65.3024 24.3 65.88 23.7224 65.88 23.01C65.88 22.2976 65.3024 21.72 64.59 21.72H60.41ZM51.34 12.32C50.7435 12.32 50.26 12.8035 50.26 13.4C50.26 13.9965 50.7435 14.48 51.34 14.48H55.04C55.6365 14.48 56.12 13.9965 56.12 13.4C56.12 12.8035 55.6365 12.32 55.04 12.32H51.34ZM51.46 6.56C50.8635 6.56 50.38 7.04353 50.38 7.64C50.38 8.23647 50.8635 8.72 51.46 8.72H55.08C55.6765 8.72 56.16 8.23647 56.16 7.64C56.16 7.04353 55.6765 6.56 55.08 6.56H51.46ZM51.34 15.16C50.7435 15.16 50.26 15.6435 50.26 16.24C50.26 16.8365 50.7435 17.32 51.34 17.32H55.04C55.6365 17.32 56.12 16.8365 56.12 16.24C56.12 15.6435 55.6365 15.16 55.04 15.16H51.34ZM50.41 9.38C49.7859 9.38 49.28 9.88592 49.28 10.51C49.28 11.1341 49.7859 11.64 50.41 11.64H55.73C56.3541 11.64 56.86 11.1341 56.86 10.51C56.86 9.88592 56.3541 9.38 55.73 9.38H50.41ZM52.73 18.04C52.1059 18.04 51.6 18.5509 51.6 19.175C51.6 19.7936 52.1014 20.3 52.72 20.3H52.99C53.4594 20.3 53.84 20.6806 53.84 21.15C53.84 21.6194 53.4594 22 52.99 22H52.72C52.1014 22 51.6 22.5064 51.6 23.125C51.6 23.7491 52.1059 24.26 52.73 24.26H54.3C55.4046 24.26 56.3 23.3646 56.3 22.26V20.04C56.3 18.9354 55.4046 18.04 54.3 18.04H52.73ZM51.39 18.04C50.7217 18.04 50.18 18.5817 50.18 19.25V23.77C50.18 24.4383 50.7217 24.98 51.39 24.98C52.0583 24.98 52.6 24.4383 52.6 23.77V19.25C52.6 18.5817 52.0583 18.04 51.39 18.04Z" fill="#F5A500"/>
<path fill-rule="evenodd" clip-rule="evenodd" d="M35.1896 12.5904C34.4413 13.0225 35.7701 13.7539 36.5699 13.4265C36.5981 13.4149 36.6265 13.4036 36.655 13.3924C36.809 13.3319 36.8446 13.1244 36.7081 13.0306C36.0485 12.5773 35.505 12.4083 35.1896 12.5904ZM40.5046 13.2514C40.24 13.1692 39.9716 13.1067 39.7014 13.0635C39.2005 12.9835 38.7195 12.788 38.3331 12.4593C36.8907 11.2322 35.4921 10.7365 34.4625 11.3309C33.433 11.9253 33.163 13.384 33.5042 15.2464C33.5957 15.7457 33.5243 16.2602 33.343 16.7343C33.2604 16.9503 33.1914 17.1696 33.1359 17.3909C33.0123 17.883 32.7757 18.3453 32.4145 18.7018C31.067 20.0315 30.4517 21.3812 30.954 22.4584C31.4565 23.5361 32.887 23.9322 34.773 23.7541C35.2781 23.7064 35.7844 23.8222 36.2407 24.044C36.4745 24.1576 36.717 24.2561 36.9669 24.338C37.2598 24.4341 37.5576 24.5059 37.8575 24.5538C38.3585 24.6338 38.8396 24.8293 39.226 25.1582C40.6688 26.3858 42.0677 26.8818 43.0975 26.2873C44.1269 25.693 44.397 24.2344 44.0559 22.3723C43.9644 21.8731 44.0358 21.3587 44.2169 20.8847C44.2983 20.6716 44.3676 20.4524 44.4238 20.2281C44.5472 19.7357 44.7839 19.2733 45.1452 18.9168C46.4929 17.5869 47.1084 16.2371 46.606 15.1598C46.1036 14.0823 44.6736 13.6862 42.7882 13.864C42.2831 13.9116 41.777 13.7959 41.3207 13.5741C41.0591 13.4469 40.7864 13.3387 40.5046 13.2514ZM43.6135 15.5698C43.5274 15.4412 43.6112 15.2632 43.766 15.2638C44.5804 15.2674 45.1324 15.4408 45.288 15.7744C45.6532 16.5576 44.1451 16.3945 43.6778 15.6676C43.6567 15.6348 43.6353 15.6022 43.6135 15.5698ZM42.6053 23.1926C42.6481 23.1552 42.716 23.1801 42.7228 23.2366C42.8351 24.1714 42.7185 24.8268 42.3704 25.0278C42.3378 25.0466 42.3027 25.0617 42.2654 25.0731C41.4848 25.3111 41.5897 23.9694 42.2449 23.483C42.3683 23.3915 42.4885 23.2947 42.6053 23.1926ZM33.2455 20.6035C33.5031 21.3997 32.755 22.6056 32.3035 21.9009C32.2917 21.8824 32.2812 21.8634 32.2721 21.8438C32.1046 21.4847 32.3746 20.8929 32.984 20.2045C33.033 20.1491 33.1238 20.1733 33.1421 20.245C33.1728 20.3661 33.2073 20.4856 33.2455 20.6035ZM42.3533 21.3111C41.6327 22.3402 40.5484 22.9632 39.3957 23.1279C39.3024 23.1412 39.2111 23.1079 39.148 23.0379C39.0106 22.8857 39.0697 22.6427 39.2597 22.5655C39.6097 22.4232 39.9625 22.2694 40.3166 22.1043C40.9706 21.7993 41.5927 21.4728 42.1741 21.1313C42.3014 21.0566 42.438 21.1902 42.3533 21.3111ZM43.0055 17.7241C43.163 18.3389 42.8492 18.9567 42.3229 19.3114C41.558 19.8269 40.6739 20.3329 39.702 20.7862C39.5764 20.8447 39.4511 20.9016 39.3262 20.9568C38.5108 21.317 37.5621 21.0178 37.1007 20.2551C37.0301 20.1383 36.9601 20.0198 36.8908 19.8998C36.3545 18.9711 35.9206 18.0494 35.5897 17.1885C35.362 16.596 35.4594 15.91 35.9411 15.4967C36.3561 15.1405 36.8388 14.8611 37.3672 14.6802C37.5964 14.602 37.8315 14.5431 38.0698 14.5038C38.3012 14.4658 38.5387 14.4461 38.7808 14.4461C39.2285 14.4461 39.6605 14.5135 40.0671 14.6388C40.4899 14.7695 40.8999 14.9672 41.2819 15.2347C41.6739 15.5092 42.0071 15.8366 42.2784 16.2004C42.6217 16.6609 42.8661 17.1799 43.0055 17.7241ZM36.2325 21.611C36.3438 21.7832 36.2529 22.0162 36.0531 22.0621C35.9612 22.0832 35.8674 22.0581 35.7986 21.9937C34.9488 21.1976 34.4178 20.0654 34.4178 18.8091C34.4178 18.6615 34.6064 18.6304 34.6678 18.7646C34.9482 19.3778 35.2705 20.002 35.6313 20.627C35.8266 20.9653 36.0274 21.2938 36.2325 21.611Z" fill="#F5A500"/>
<path d="M23.6437 35.6563C22.9234 35.4788 22.1968 35.8984 21.9197 36.5865C20.7082 39.5944 18.6441 41.8773 15.8308 43.3834C15.0572 43.7975 14.8598 44.9458 15.3793 45.653C15.7551 46.1646 16.4064 46.3165 16.9637 46.0126C20.3654 44.1579 22.9647 41.3012 24.5833 37.4426C24.8998 36.688 24.4382 35.852 23.6437 35.6563ZM16.062 39.9371C15.556 40.5647 15.7812 41.5026 16.5042 41.8594C18.3834 42.7868 20.4203 43.9498 21.8911 44.9816C22.5476 45.4422 23.4739 45.3486 23.9667 44.7158C24.439 44.1092 24.3324 43.2367 23.6868 42.8194C21.9594 41.7028 19.5226 40.4774 17.4861 39.5825C16.9864 39.3629 16.4045 39.5122 16.062 39.9371ZM15.4892 35.7326C14.8314 36.0041 14.554 36.7844 14.8507 37.4312C14.9776 37.7078 15.0988 37.9869 15.209 38.2581C15.4959 38.9644 16.3198 39.3587 17.0177 39.0519C17.5801 38.8046 17.8704 38.1788 17.626 37.6152C17.4326 37.169 17.1971 36.6913 16.9503 36.233C16.6696 35.7117 16.0365 35.5066 15.4892 35.7326ZM19.0802 35.202C18.396 35.4361 18.0666 36.2116 18.3189 36.8893C18.4167 37.1518 18.5083 37.416 18.5908 37.6735C18.8296 38.4192 19.6468 38.8903 20.3827 38.6227C20.9569 38.4139 21.2915 37.8173 21.0945 37.2389C20.9386 36.7812 20.7422 36.2885 20.5327 35.8147C20.2875 35.2602 19.6539 35.0058 19.0802 35.202ZM13.12 31.8C12.0155 31.8 11.12 32.6954 11.12 33.8V48.49C11.12 49.2908 11.7692 49.94 12.57 49.94C13.3708 49.94 14.02 49.2908 14.02 48.49V36.58C14.02 35.4754 14.9155 34.58 16.02 34.58H23.46C24.5646 34.58 25.46 35.4754 25.46 36.58V48.42C25.46 49.2595 26.1406 49.94 26.98 49.94C27.8195 49.94 28.5 49.2595 28.5 48.42V33.8C28.5 32.6954 27.6046 31.8 26.5 31.8H13.12ZM14.21 46.4C13.4423 46.4 12.82 47.0223 12.82 47.79C12.82 48.5577 13.4423 49.18 14.21 49.18H25.21C25.9777 49.18 26.6 48.5577 26.6 47.79C26.6 47.0223 25.9777 46.4 25.21 46.4H14.21Z" fill="#F5A500"/>
<path d="M45.77 38.58C45.1128 38.58 44.58 39.1128 44.58 39.77C44.58 40.4272 45.1128 40.96 45.77 40.96H47.81C48.4672 40.96 49 40.4272 49 39.77C49 39.1128 48.4672 38.58 47.81 38.58H45.77ZM38.97 39.2C38.4012 39.2 37.94 39.6612 37.94 40.23C37.94 40.7989 38.4012 41.26 38.97 41.26H43.05C43.6189 41.26 44.08 40.7989 44.08 40.23C44.08 39.6612 43.6189 39.2 43.05 39.2H38.97ZM41.79 32.32C41.2654 32.32 40.84 32.7453 40.84 33.27V34.07C40.84 34.5947 41.2654 35.02 41.79 35.02C42.3147 35.02 42.74 34.5947 42.74 34.07V33.27C42.74 32.7453 42.3147 32.32 41.79 32.32ZM41.79 37.44C41.2654 37.44 40.84 37.8653 40.84 38.39V39.29C40.84 39.8147 41.2654 40.24 41.79 40.24C42.3147 40.24 42.74 39.8147 42.74 39.29V38.39C42.74 37.8653 42.3147 37.44 41.79 37.44ZM38.45 47.12C37.7818 47.12 37.24 47.6617 37.24 48.33C37.24 48.9983 37.7818 49.54 38.45 49.54H48.19C48.8583 49.54 49.4 48.9983 49.4 48.33C49.4 47.6617 48.8583 47.12 48.19 47.12H38.45ZM39.94 31.44C38.8355 31.44 37.94 32.3354 37.94 33.44V39.58C37.94 40.1433 38.3967 40.6 38.96 40.6C39.5234 40.6 39.98 40.1433 39.98 39.58V35.48C39.98 34.3865 40.8665 33.5 41.96 33.5H42.91C43.4789 33.5 43.94 33.0389 43.94 32.47C43.94 31.9012 43.4789 31.44 42.91 31.44H39.94ZM39.99 34.26C39.5206 34.26 39.14 34.6406 39.14 35.11C39.14 35.5795 39.5206 35.96 39.99 35.96H41.6C41.8099 35.96 41.98 36.1301 41.98 36.34C41.98 36.5499 41.8099 36.72 41.6 36.72H40.05C39.5806 36.72 39.2 37.1006 39.2 37.57C39.2 38.0395 39.5806 38.42 40.05 38.42H41.76C42.8646 38.42 43.76 37.5246 43.76 36.42V36.26C43.76 35.1554 42.8646 34.26 41.76 34.26H39.99ZM46.2398 31.2291C45.5549 31.1045 44.9088 31.5804 44.7843 32.2653C44.5533 33.5353 44.2202 34.772 43.7849 35.7928C43.5334 36.3825 43.7522 37.1165 44.2993 37.4507C44.8686 37.7983 45.6424 37.6325 45.9053 37.0195C46.4451 35.761 46.8904 34.2011 47.2 32.6021C47.3248 31.9571 46.8862 31.3466 46.2398 31.2291ZM31.8524 46.8948C31.1053 47.0093 30.6088 47.7348 30.7813 48.4706C30.9374 49.137 31.5884 49.5641 32.2613 49.4392C33.6778 49.1764 35.2665 48.8736 36.8249 48.5703C37.4372 48.4511 37.8612 47.8899 37.8098 47.2682C37.7507 46.5534 37.0931 46.0421 36.3856 46.1602C34.7849 46.4276 33.1964 46.6888 31.8524 46.8948ZM32.68 36.04C32.0283 36.04 31.5 36.5683 31.5 37.22C31.5 37.8717 32.0283 38.4 32.68 38.4H35.92C36.5717 38.4 37.1 37.8717 37.1 37.22C37.1 36.5683 36.5717 36.04 35.92 36.04H32.68ZM31.99 39.42C31.3218 39.42 30.78 39.9617 30.78 40.63C30.78 41.2983 31.3218 41.84 31.99 41.84H36.25C36.9183 41.84 37.46 41.2983 37.46 40.63C37.46 39.9617 36.9183 39.42 36.25 39.42H31.99ZM31.6029 42.7093C31.124 42.8262 30.8285 43.3053 30.922 43.7893C31.0101 44.2452 31.0905 44.7191 31.1513 45.1652C31.2291 45.7359 31.7866 46.1411 32.3435 45.9942C32.7689 45.8821 33.0523 45.4793 32.9878 45.0441C32.9092 44.5143 32.7971 43.9213 32.6703 43.3568C32.5628 42.8781 32.0795 42.5929 31.6029 42.7093ZM36.9488 42.582C36.4289 42.4629 35.9184 42.8165 35.8239 43.3414C35.7519 43.7409 35.6678 44.158 35.5798 44.5466C35.471 45.0275 35.7554 45.52 36.2334 45.641C36.6769 45.7532 37.1304 45.5038 37.2558 45.0638C37.3723 44.6551 37.4945 44.2015 37.6254 43.7364C37.7682 43.2293 37.4623 42.6997 36.9488 42.582ZM34.24 36.96C33.5883 36.96 33.06 37.4883 33.06 38.14V46.2548C33.06 46.9814 33.7103 47.5353 34.4276 47.4198C34.9995 47.3277 35.42 46.8341 35.42 46.2548V38.14C35.42 37.4883 34.8917 36.96 34.24 36.96ZM46.5441 33.52C45.9958 33.52 45.5126 33.8801 45.3558 34.4055C45.1185 35.2007 45.7142 36 46.5441 36H48.08C48.7649 36 49.32 35.4448 49.32 34.76C49.32 34.0752 48.7649 33.52 48.08 33.52H46.5441ZM40.46 42C39.3555 42 38.46 42.8954 38.46 44V47.03C38.46 47.6541 38.9659 48.16 39.59 48.16C40.2141 48.16 40.72 47.6541 40.72 47.03V44.59C40.72 44.4078 40.8678 44.26 41.05 44.26C41.2323 44.26 41.38 44.4078 41.38 44.59V47.3C41.38 47.775 41.7651 48.16 42.24 48.16C42.715 48.16 43.1 47.775 43.1 47.3V44.59C43.1 44.4078 43.2478 44.26 43.43 44.26C43.6123 44.26 43.76 44.4078 43.76 44.59V47.31C43.76 47.7795 44.1406 48.16 44.61 48.16C45.0795 48.16 45.46 47.7795 45.46 47.31V44.6C45.46 44.4122 45.6122 44.26 45.8 44.26C45.9878 44.26 46.14 44.4122 46.14 44.6V46.97C46.14 47.6272 46.6728 48.16 47.33 48.16C47.9872 48.16 48.52 47.6272 48.52 46.97V44C48.52 42.8954 47.6246 42 46.52 42H40.46ZM33.7515 30.98C33.3719 30.98 33.0351 31.2173 32.8846 31.5658C32.4169 32.6488 31.7308 33.8176 30.8084 34.8563C30.3654 35.3552 30.381 36.1757 30.8246 36.6742C31.2583 37.1616 32.0453 37.2592 32.4809 36.7735C33.8675 35.2273 34.7605 33.6274 35.395 32.3696C35.438 32.2843 35.46 32.1903 35.46 32.0949V31.88C35.46 31.6591 35.2809 31.48 35.06 31.48H34.91C34.772 31.48 34.66 31.3681 34.66 31.23C34.66 31.0919 34.5481 30.98 34.41 30.98H33.7515ZM34.42 30.98C33.8677 30.98 33.42 31.4277 33.42 31.98V32.6776C33.42 32.8446 33.5554 32.98 33.7224 32.98C33.7981 32.98 33.8711 33.0081 33.9258 33.0603C34.4342 33.5458 35.0005 34.2531 35.4907 34.9572C36.0242 35.7233 37.181 35.8696 37.8084 35.1782C38.1962 34.7508 38.2638 34.1187 37.9139 33.6597C37.3376 32.9033 36.5645 32.0755 35.8538 31.3782C35.5905 31.1199 35.2346 30.98 34.8657 30.98H34.42Z" fill="#F5A500"/>
<path fill-rule="evenodd" clip-rule="evenodd" d="M59.1908 34.6967L57.8355 36.052C57.3903 36.4971 56.7616 36.7067 56.1384 36.6177L53.9935 36.3113C53.3703 36.2223 52.7416 36.4318 52.2965 36.877L50.9412 38.2323C50.2903 38.8831 50.2903 39.9384 50.9412 40.5893C51.5921 41.2401 51.4744 42.4017 51.6696 43.3012C51.735 43.603 51.8851 43.8902 52.1197 44.1248L53.0036 45.0087C53.1663 45.1714 53.1663 45.4352 53.0036 45.5979C52.8409 45.7607 52.8409 46.0245 53.0036 46.1872L53.5928 46.7765C53.7556 46.9392 54.0194 46.9392 54.1821 46.7765C54.3448 46.6137 54.6086 46.6137 54.7713 46.7765L55.6552 47.6603C55.8898 47.895 56.177 48.045 56.4788 48.1105C57.3784 48.3056 58.5399 48.188 59.1908 48.8389C59.8416 49.4897 60.8969 49.4897 61.5478 48.8389L62.9031 47.4836C63.3482 47.0384 63.5578 46.4097 63.4688 45.7865L63.1623 43.6416C63.0733 43.0184 63.2829 42.3897 63.728 41.9446L65.0833 40.5893C66.9431 38.7295 68.0805 35.3369 66.2618 33.5182C64.4431 31.6995 61.0505 32.837 59.1908 34.6967ZM56.2445 44.7141C55.919 45.0395 55.919 45.5671 56.2445 45.8926C56.5699 46.218 57.0976 46.218 57.423 45.8926L62.7263 40.5893L63.9048 39.4108C65.1969 38.1187 66.0276 35.641 65.0833 34.6967C64.139 33.7524 61.6614 34.5831 60.3693 35.8752L59.1908 37.0537L53.8875 42.357C53.562 42.6825 53.562 43.2101 53.8875 43.5356C54.2129 43.861 54.7405 43.861 55.066 43.5356L57.423 41.1785C57.7484 40.8531 58.2761 40.8531 58.6015 41.1785C58.9269 41.504 58.9269 42.0316 58.6015 42.357L56.2445 44.7141ZM53.2982 38.2323C53.4837 38.0468 53.7456 37.9595 54.0053 37.9965C54.6851 38.0937 54.9623 38.9252 54.4767 39.4108L53.8875 40C53.562 40.3255 53.0344 40.3255 52.7089 40C52.3835 39.6746 52.3835 39.1469 52.7089 38.8215L53.2982 38.2323ZM59.78 47.0711C59.4546 46.7456 59.4546 46.218 59.78 45.8926L60.3693 45.3033C60.8548 44.8177 61.6864 45.0949 61.7835 45.7747C61.8206 46.0344 61.7333 46.2964 61.5478 46.4818L60.9585 47.0711C60.6331 47.3965 60.1055 47.3965 59.78 47.0711ZM60.3693 39.4108C59.7184 38.7599 59.7184 37.7046 60.3693 37.0537C61.0201 36.4029 62.0754 36.4029 62.7263 37.0537C63.3772 37.7046 63.3772 38.7599 62.7263 39.4108C62.0754 40.0616 61.0201 40.0616 60.3693 39.4108Z" fill="#F5A500"/>
<rect width="6" height="56" fill="#F5A500"/>
</svg>
