<svg width="40" height="40" viewBox="0 0 40 40" fill="none" xmlns="http://www.w3.org/2000/svg">
<path fill-rule="evenodd" clip-rule="evenodd" d="M29.9999 28V21H28V28H12V12H19V10H12C10.8954 10 10 10.8954 10 12V28C10 29.1045 10.8954 29.9999 12 29.9999H28C29.1045 29.9999 29.9999 29.1045 29.9999 28ZM27.1781 10.7234C26.7197 10.2614 26.0921 10 25.4373 10C24.7833 10 24.1564 10.2608 23.6954 10.7246L15.3265 19.0934C14.5787 19.7523 14.0884 20.7328 14.0032 21.7873L14 25.0023V26.0023H18.1346C19.2689 25.9245 20.259 25.4295 20.9575 24.6237L29.279 16.3058C29.7406 15.8441 30 15.218 30 14.5651C30 13.9122 29.7406 13.286 29.279 12.8243L27.1781 10.7234ZM18.064 24.0048C18.5982 23.967 19.0955 23.7183 19.4948 23.2616L25.5566 17.1997L22.8024 14.4453L16.6961 20.5496C16.2909 20.9079 16.0403 21.4092 16 21.8678V24.0029L18.064 24.0048ZM24.2168 13.0313L26.9709 15.7855L27.8647 14.8916C27.9513 14.805 28 14.6875 28 14.5651C28 14.4426 27.9513 14.3251 27.8647 14.2385L25.7611 12.1348C25.6754 12.0485 25.5589 12 25.4373 12C25.3157 12 25.1992 12.0485 25.1135 12.1348L24.2168 13.0313Z" fill="black"/>
</svg>
