<svg width="40" height="40" viewBox="0 0 40 40" fill="none" xmlns="http://www.w3.org/2000/svg">
<path d="M21.5556 19.3778L25.4444 23.2667C25.7296 23.5519 25.8722 23.9148 25.8722 24.3556C25.8722 24.7963 25.7296 25.1593 25.4444 25.4444C25.1593 25.7296 24.7963 25.8722 24.3556 25.8722C23.9148 25.8722 23.5519 25.7296 23.2667 25.4444L18.9111 21.0889C18.7556 20.9333 18.6389 20.7586 18.5611 20.5647C18.4833 20.3707 18.4444 20.1696 18.4444 19.9611V13.7778C18.4444 13.337 18.5938 12.9673 18.8924 12.6687C19.1911 12.37 19.5603 12.2212 20 12.2222C20.4407 12.2222 20.8104 12.3716 21.1091 12.6702C21.4078 12.9689 21.5566 13.3381 21.5556 13.7778V19.3778ZM20 34C16.863 34 14.05 33.0729 11.5611 31.2187C9.07223 29.3644 7.40001 26.9471 6.54445 23.9667C6.41482 23.5 6.46045 23.0593 6.68134 22.6444C6.90223 22.2296 7.24549 21.9704 7.71112 21.8667C8.15186 21.763 8.54749 21.8604 8.898 22.1591C9.24852 22.4578 9.48808 22.827 9.61667 23.2667C10.2907 25.5481 11.5938 27.3889 13.5258 28.7889C15.4578 30.1889 17.6159 30.8889 20 30.8889C23.0333 30.8889 25.6067 29.8321 27.7202 27.7187C29.8337 25.6052 30.8899 23.0323 30.8889 20C30.8889 16.9667 29.8322 14.3933 27.7187 12.2798C25.6052 10.1663 23.0323 9.11007 20 9.11111C18.2111 9.11111 16.5389 9.52593 14.9833 10.3556C13.4278 11.1852 12.1185 12.3259 11.0556 13.7778H13.7778C14.2185 13.7778 14.5882 13.9271 14.8869 14.2258C15.1856 14.5244 15.3344 14.8936 15.3333 15.3333C15.3333 15.7741 15.184 16.1438 14.8853 16.4424C14.5867 16.7411 14.2175 16.8899 13.7778 16.8889H7.55556C7.11482 16.8889 6.74512 16.7396 6.44645 16.4409C6.14778 16.1422 5.99897 15.773 6.00001 15.3333V9.11111C6.00001 8.67037 6.14934 8.30067 6.44801 8.002C6.74667 7.70333 7.11586 7.55452 7.55556 7.55556C7.9963 7.55556 8.366 7.70489 8.66467 8.00356C8.96334 8.30222 9.11215 8.67141 9.11112 9.11111V11.2111C10.4333 9.55185 12.0475 8.26852 13.9536 7.36111C15.8596 6.4537 17.8751 6 20 6C21.9444 6 23.766 6.3697 25.4647 7.10911C27.1633 7.84852 28.6411 8.84615 29.898 10.102C31.1549 11.3599 32.153 12.8377 32.8924 14.5353C33.6319 16.233 34.001 18.0545 34 20C34 21.9444 33.6303 23.766 32.8909 25.4647C32.1515 27.1633 31.1539 28.6411 29.898 29.898C28.6401 31.1549 27.1623 32.153 25.4647 32.8924C23.767 33.6318 21.9455 34.001 20 34Z" fill="#3B82C4"/>
</svg>
