<svg width="40" height="40" viewBox="0 0 40 40" fill="none" xmlns="http://www.w3.org/2000/svg">
<g clip-path="url(#clip0_1307_5126)">
<path fill-rule="evenodd" clip-rule="evenodd" d="M12.1909 18.2573C11.2409 17.2357 10.8074 16.3508 11.0519 15.8266C11.2964 15.3022 12.2536 15.0655 13.6479 15.1369C12.9527 16.0437 12.4472 17.1036 12.1909 18.2573ZM15.5664 13.3403C16.8356 12.4936 18.3604 12 20.0006 12C24.1197 12 27.5118 15.1132 27.9522 19.1151C30.3524 21.1736 31.548 23.3374 30.764 25.0186C29.9802 26.6996 27.5545 27.1747 24.4351 26.6594C23.1659 27.5063 21.6409 28 20.0006 28C15.8807 28 12.4882 24.8857 12.0487 20.8829C9.65009 18.825 8.45553 16.6621 9.23924 14.9814C10.023 13.3007 12.4479 12.8255 15.5664 13.3403ZM23.949 24.5178C25.2064 23.418 26.0006 21.8018 26.0006 20C26.0006 16.6863 23.3143 14 20.0006 14C16.7273 14 14.0663 16.6211 14.0018 19.8788C15.273 20.8592 16.8882 21.8583 18.7338 22.7189C20.5786 23.5792 22.3814 24.1741 23.949 24.5178ZM21.259 25.8678C20.1645 25.512 19.031 25.0643 17.8886 24.5315C16.7453 23.9984 15.6731 23.4175 14.6965 22.8073C15.7037 24.7065 17.7011 26 20.0006 26C20.4322 26 20.8532 25.9544 21.259 25.8678ZM26.3533 24.863C27.7487 24.9347 28.7068 24.698 28.9514 24.1734C29.196 23.6489 28.7618 22.7632 27.8106 21.7408C27.5545 22.8952 27.0489 23.9558 26.3533 24.863Z" fill="#3B82C4"/>
</g>
<defs>
<clipPath id="clip0_1307_5126">
<rect width="40" height="40" fill="white"/>
</clipPath>
</defs>
</svg>
