<svg width="40" height="40" viewBox="0 0 40 40" fill="none" xmlns="http://www.w3.org/2000/svg">
<path fill-rule="evenodd" clip-rule="evenodd" d="M27.8124 18.2573C28.7624 17.2357 29.1959 16.3508 28.9514 15.8266C28.7069 15.3022 27.7497 15.0655 26.3554 15.1369C27.0506 16.0437 27.5561 17.1036 27.8124 18.2573ZM24.4369 13.3403C23.1677 12.4936 21.6429 12 20.0027 12C15.8836 12 12.4915 15.1132 12.0511 19.1151C9.65091 21.1736 8.45528 23.3374 9.23925 25.0186C10.0231 26.6996 12.4488 27.1747 15.5682 26.6594C16.8374 27.5063 18.3624 28 20.0027 28C24.1226 28 27.5151 24.8857 27.9546 20.8829C30.3532 18.825 31.5478 16.6621 30.7641 14.9814C29.9803 13.3007 27.5554 12.8255 24.4369 13.3403ZM16.0543 24.5178C14.7969 23.418 14.0027 21.8018 14.0027 20C14.0027 16.6863 16.689 14 20.0027 14C23.276 14 25.937 16.6211 26.0015 19.8788C24.7303 20.8592 23.1151 21.8583 21.2695 22.7189C19.4247 23.5792 17.6219 24.1741 16.0543 24.5178ZM18.7443 25.8678C19.8388 25.512 20.9722 25.0643 22.1147 24.5315C23.258 23.9984 24.3302 23.4175 25.3068 22.8073C24.2996 24.7065 22.3022 26 20.0027 26C19.5711 26 19.1501 25.9544 18.7443 25.8678ZM13.65 24.863C12.2546 24.9347 11.2965 24.698 11.0519 24.1734C10.8073 23.6489 11.2415 22.7632 12.1927 21.7408C12.4488 22.8952 12.9544 23.9558 13.65 24.863Z" fill="#3B82C4"/>
</svg>
